<mxfile host="app.diagrams.net" modified="2024-06-22T10:00:25.486Z" agent="Mozilla/5.0 (Macintosh; Intel Mac OS X 10_15_7) AppleWebKit/605.1.15 (KHTML, like Gecko) Version/17.5 Safari/605.1.15" version="24.6.1" etag="_XbrTVfyMa6am2QKUxrk" type="github">
  <diagram name="Page-1" id="M9yer_s7SdDmkO9UdrDt">
    <mxGraphModel>
      <root>
        <mxCell id="0" />
        <mxCell id="1" parent="0" />
      </root>
    </mxGraphModel>
  </diagram>
</mxfile>
